<svg width="61" height="60" viewBox="0 0 61 60" fill="none" xmlns="http://www.w3.org/2000/svg">
<g clip-path="url(#clip0_11_19)">
<path d="M4.25001 26.25C4.24541 20.5423 6.41015 15.0462 10.3058 10.8748C14.2015 6.70333 19.537 4.16831 25.2316 3.78314C30.9263 3.39796 36.5545 5.19142 40.9764 8.8003C45.3984 12.4092 48.2835 17.5637 49.0475 23.22C47.7682 22.8732 46.4584 22.6509 45.1363 22.5563C44.6012 19.8777 43.4877 17.3483 41.8734 15.1449C40.2592 12.9415 38.1832 11.1172 35.7905 9.79955C33.3979 8.48192 30.7463 7.70274 28.0212 7.51647C25.2961 7.33021 22.5632 7.74135 20.0135 8.72117C17.4638 9.70098 15.1589 11.2258 13.2599 13.1891C11.3608 15.1524 9.91343 17.5067 9.01893 20.0876C8.12443 22.6684 7.80437 25.4135 8.08114 28.1309C8.3579 30.8483 9.22481 33.4725 10.6213 35.82C10.7519 36.0397 10.8362 36.2837 10.8691 36.5371C10.902 36.7906 10.8828 37.048 10.8125 37.2938L8.90376 43.9688L15.1213 41.8988C15.3853 41.8106 15.6657 41.7824 15.942 41.8161C16.2183 41.8499 16.4837 41.9447 16.7188 42.0938C18.6565 43.3246 20.8051 44.1865 23.0563 44.6363C23.15 45.9788 23.3788 47.2875 23.72 48.5475C20.8171 48.1571 18.0191 47.2002 15.485 45.7313L6.71751 48.6563C6.3936 48.7644 6.0463 48.782 5.71309 48.7072C5.37989 48.6325 5.07344 48.4681 4.82681 48.2319C4.58018 47.9957 4.40275 47.6966 4.31365 47.3669C4.22456 47.0373 4.22719 46.6895 4.32126 46.3613L6.99126 37.02C5.18757 33.7172 4.24483 30.0132 4.25001 26.25ZM60.5 43.125C60.5 47.6005 58.7221 51.8928 55.5574 55.0574C52.3928 58.2221 48.1005 60 43.625 60C39.1495 60 34.8573 58.2221 31.6926 55.0574C28.5279 51.8928 26.75 47.6005 26.75 43.125C26.75 38.6495 28.5279 34.3573 31.6926 31.1926C34.8573 28.0279 39.1495 26.25 43.625 26.25C48.1005 26.25 52.3928 28.0279 55.5574 31.1926C58.7221 34.3573 60.5 38.6495 60.5 43.125ZM45.5 35.625C45.5 35.1277 45.3025 34.6508 44.9508 34.2992C44.5992 33.9475 44.1223 33.75 43.625 33.75C43.1277 33.75 42.6508 33.9475 42.2992 34.2992C41.9476 34.6508 41.75 35.1277 41.75 35.625V41.25H36.125C35.6277 41.25 35.1508 41.4476 34.7992 41.7992C34.4476 42.1508 34.25 42.6277 34.25 43.125C34.25 43.6223 34.4476 44.0992 34.7992 44.4508C35.1508 44.8025 35.6277 45 36.125 45H41.75V50.625C41.75 51.1223 41.9476 51.5992 42.2992 51.9508C42.6508 52.3025 43.1277 52.5 43.625 52.5C44.1223 52.5 44.5992 52.3025 44.9508 51.9508C45.3025 51.5992 45.5 51.1223 45.5 50.625V45H51.125C51.6223 45 52.0992 44.8025 52.4508 44.4508C52.8025 44.0992 53 43.6223 53 43.125C53 42.6277 52.8025 42.1508 52.4508 41.7992C52.0992 41.4476 51.6223 41.25 51.125 41.25H45.5V35.625Z" fill="#1A000A"/>
</g>
<defs>
<clipPath id="clip0_11_19">
<rect width="60" height="60" fill="white" transform="translate(0.5)"/>
</clipPath>
</defs>
</svg>
