<svg width="51" height="53" viewBox="0 0 51 53" fill="none" xmlns="http://www.w3.org/2000/svg">
<path d="M10.0238 7.14286C10.0238 6.19566 10.4001 5.28725 11.0699 4.61748C11.7396 3.9477 12.648 3.57143 13.5952 3.57143C14.5424 3.57143 15.4508 3.9477 16.1206 4.61748C16.7904 5.28725 17.1667 6.19566 17.1667 7.14286C17.1667 8.09006 16.7904 8.99847 16.1206 9.66824C15.4508 10.338 14.5424 10.7143 13.5952 10.7143C12.648 10.7143 11.7396 10.338 11.0699 9.66824C10.4001 8.99847 10.0238 8.09006 10.0238 7.14286ZM13.5952 0C12.6572 -1.39775e-08 11.7284 0.184755 10.8618 0.543718C9.99517 0.90268 9.20775 1.42882 8.54448 2.09209C7.8812 2.75537 7.35506 3.54279 6.9961 4.4094C6.63714 5.27602 6.45238 6.20484 6.45238 7.14286C6.45238 8.08087 6.63714 9.0097 6.9961 9.87631C7.35506 10.7429 7.8812 11.5303 8.54448 12.1936C9.20775 12.8569 9.99517 13.383 10.8618 13.742C11.7284 14.101 12.6572 14.2857 13.5952 14.2857C15.4896 14.2857 17.3065 13.5332 18.646 12.1936C19.9855 10.8541 20.7381 9.03726 20.7381 7.14286C20.7381 5.24845 19.9855 3.43164 18.646 2.09209C17.3065 0.752549 15.4896 2.82288e-08 13.5952 0ZM0.5 20.8762C0.5 18.5476 2.38333 16.6667 4.70952 16.6667H16.0595C15.4242 17.7647 15.0161 18.9792 14.8595 20.2381H4.70952C4.54029 20.2381 4.37799 20.3053 4.25832 20.425C4.13866 20.5447 4.07143 20.707 4.07143 20.8762V21.7262C4.07143 22.0643 4.07857 24.1071 5.23095 26.0238C6.15714 27.5667 7.9619 29.2619 11.7786 29.669C10.6357 30.431 9.74048 31.5405 9.25 32.8476C5.68333 31.9762 3.47143 30.031 2.16905 27.8643C0.5 25.0857 0.5 22.2286 0.5 21.731V20.8762ZM33.7619 20.2381C33.6046 18.979 33.1957 17.7645 32.5595 16.6667H43.9095C46.2381 16.6667 48.119 18.55 48.119 20.8762V21.7333C48.119 22.1786 48.119 24.5548 46.8905 27.0571C45.9424 26.3194 44.9116 25.6946 43.819 25.1952C44.2924 24.0996 44.5402 22.9197 44.5476 21.7262V20.8762C44.5476 20.7924 44.5311 20.7094 44.499 20.632C44.467 20.5546 44.42 20.4842 44.3607 20.425C44.3015 20.3657 44.2311 20.3187 44.1537 20.2867C44.0763 20.2546 43.9933 20.2381 43.9095 20.2381H33.7619ZM30.069 25.6548C30.6297 24.8989 31.0355 24.0398 31.2631 23.1266C31.4906 22.2135 31.5355 21.2644 31.3952 20.3338C31.2548 19.4033 30.9319 18.5097 30.4451 17.7043C29.9583 16.8989 29.3171 16.1977 28.5585 15.6409C27.7998 15.0841 26.9386 14.6827 26.0243 14.4597C25.11 14.2368 24.1607 14.1967 23.2309 14.3418C22.301 14.487 21.4091 14.8144 20.6062 15.3053C19.8033 15.7962 19.1053 16.4409 18.5524 17.2024C17.443 18.7302 16.9836 20.6351 17.2748 22.5006C17.5659 24.3662 18.5838 26.0405 20.106 27.1577C21.6281 28.2748 23.5307 28.7439 25.3977 28.4622C27.2646 28.1806 28.9442 27.1712 30.069 25.6548ZM24.3619 30.9524H15.4238C13.0976 30.9524 11.2143 32.8357 11.2143 35.1619V36.019C11.2143 36.5119 11.2143 39.3714 12.881 42.15C14.65 45.0881 18.0881 47.619 24.3095 47.619H24.3619C23.6341 46.4833 23.0586 45.257 22.65 43.9714C18.7238 43.5905 16.8833 41.8714 15.9452 40.3095C14.7929 38.3929 14.7857 36.35 14.7857 36.0119V35.1619C14.7857 34.8095 15.0714 34.5238 15.4238 34.5238H22.6738C23.0809 33.2658 23.6483 32.0655 24.3619 30.9524ZM35.0238 3.57143C34.0766 3.57143 33.1682 3.9477 32.4984 4.61748C31.8287 5.28725 31.4524 6.19566 31.4524 7.14286C31.4524 8.09006 31.8287 8.99847 32.4984 9.66824C33.1682 10.338 34.0766 10.7143 35.0238 10.7143C35.971 10.7143 36.8794 10.338 37.5492 9.66824C38.219 8.99847 38.5952 8.09006 38.5952 7.14286C38.5952 6.19566 38.219 5.28725 37.5492 4.61748C36.8794 3.9477 35.971 3.57143 35.0238 3.57143ZM27.881 7.14286C27.881 5.24845 28.6335 3.43164 29.973 2.09209C31.3126 0.752549 33.1294 0 35.0238 0C36.9182 0 38.735 0.752549 40.0746 2.09209C41.4141 3.43164 42.1667 5.24845 42.1667 7.14286C42.1667 9.03726 41.4141 10.8541 40.0746 12.1936C38.735 13.5332 36.9182 14.2857 35.0238 14.2857C33.1294 14.2857 31.3126 13.5332 29.973 12.1936C28.6335 10.8541 27.881 9.03726 27.881 7.14286ZM20.7381 21.4286C20.7381 20.4814 21.1144 19.573 21.7841 18.9032C22.4539 18.2334 23.3623 17.8571 24.3095 17.8571C25.2567 17.8571 26.1651 18.2334 26.8349 18.9032C27.5047 19.573 27.881 20.4814 27.881 21.4286C27.881 22.3758 27.5047 23.2842 26.8349 23.954C26.1651 24.6237 25.2567 25 24.3095 25C23.3623 25 22.4539 24.6237 21.7841 23.954C21.1144 23.2842 20.7381 22.3758 20.7381 21.4286ZM37.4048 26.1905C40.8778 26.1905 44.2087 27.5701 46.6645 30.026C49.1203 32.4818 50.5 35.8126 50.5 39.2857C50.5 42.7588 49.1203 46.0896 46.6645 48.5454C44.2087 51.0013 40.8778 52.381 37.4048 52.381C33.9317 52.381 30.6009 51.0013 28.145 48.5454C25.6892 46.0896 24.3095 42.7588 24.3095 39.2857C24.3095 35.8126 25.6892 32.4818 28.145 30.026C30.6009 27.5701 33.9317 26.1905 37.4048 26.1905ZM38.5976 46.4357V40.4762H44.5405C44.8562 40.4762 45.159 40.3508 45.3823 40.1275C45.6055 39.9043 45.731 39.6014 45.731 39.2857C45.731 38.97 45.6055 38.6672 45.3823 38.4439C45.159 38.2207 44.8562 38.0952 44.5405 38.0952H38.5952V32.1429C38.5952 31.8271 38.4698 31.5243 38.2466 31.3011C38.0233 31.0778 37.7205 30.9524 37.4048 30.9524C37.089 30.9524 36.7862 31.0778 36.563 31.3011C36.3397 31.5243 36.2143 31.8271 36.2143 32.1429V38.0952H30.2524C29.9366 38.0952 29.6338 38.2207 29.4106 38.4439C29.1873 38.6672 29.0619 38.97 29.0619 39.2857C29.0619 39.6014 29.1873 39.9043 29.4106 40.1275C29.6338 40.3508 29.9366 40.4762 30.2524 40.4762H36.2143V46.4357C36.2143 46.7514 36.3397 47.0542 36.563 47.2775C36.7862 47.5008 37.089 47.6262 37.4048 47.6262C37.7205 47.6262 38.0233 47.5008 38.2466 47.2775C38.4698 47.0542 38.5976 46.7514 38.5976 46.4357Z" fill="#1A000A"/>
</svg>
