<svg width="51" height="50" viewBox="0 0 51 50" fill="none" xmlns="http://www.w3.org/2000/svg">
<path d="M13.4155 1.76687C10.2083 1.76687 7.596 5.07966 7.596 9.18239C7.596 11.2599 8.28731 13.1343 9.3628 14.4836C2.70928 15.5155 1.27178 24.7786 2.85352 33.1908H5.15459L5.05372 22.9033L6.87872 22.8852L7.00079 35.2568L7.85528 48.2331H12.4329V31.4079C10.943 29.5804 9.93145 27.565 9.85245 25.0773L9.85206 25.0675V25.0578C9.83702 23.4965 10.4847 21.577 11.7289 19.9244C12.9732 18.2718 14.9009 16.899 17.3718 16.8687C19.0565 16.848 20.8345 17.3583 22.3853 18.3112C21.2006 16.3372 19.5293 14.9736 17.3794 14.569C18.5031 13.2135 19.232 11.3127 19.232 9.18259C19.2415 5.57878 16.8097 1.75671 13.4154 1.76687H13.4155ZM37.6188 1.76687C34.4115 1.76687 31.7993 5.07966 31.7993 9.18239C31.7993 11.2599 32.4905 13.1343 33.566 14.4836C31.0957 14.8667 29.345 16.3852 28.2003 18.5729C29.8412 17.4522 31.784 16.8462 33.6168 16.8686C36.0877 16.899 38.0154 18.2718 39.2597 19.9244C40.5039 21.577 41.1516 23.4965 41.1365 25.0579V25.0676L41.1361 25.0774C41.0555 27.6172 40.0025 29.6647 38.461 31.5224V48.2327H42.7887L43.9117 33.1908H43.9147L44.0184 22.885L45.8433 22.9031L45.7396 33.1908H48.1351C49.9283 24.5521 47.6737 15.7152 41.5828 14.569C42.7065 13.2135 43.4354 11.3127 43.4354 9.18259C43.4449 5.57878 41.013 1.75671 37.6188 1.76687ZM17.3936 18.6262C15.554 18.6489 14.1435 19.64 13.1333 20.9817C12.1249 22.3211 11.6025 24.0217 11.6105 25.035C11.7302 28.6122 14.2039 31.0734 17.5889 34.0237C20.202 36.3012 23.2715 38.7619 25.4616 42.1663L25.4965 42.1041L25.5293 42.1628C27.7194 38.7601 30.7878 36.3005 33.4 34.0237C36.785 31.0734 39.2587 28.6122 39.3784 25.035C39.3863 24.0217 38.864 22.3211 37.8556 20.9817C36.8454 19.64 35.4349 18.6489 33.5953 18.6262C30.8167 18.5922 27.3609 20.6075 26.3283 23.7065L25.4944 26.209L24.6605 23.7065C23.6279 20.6075 20.1722 18.5922 17.3936 18.6262ZM14.2578 33.3713V48.2327H18.5855L19.3563 37.909C18.3856 37.0279 17.3936 36.1853 16.434 35.349C15.6795 34.6914 14.9454 34.0375 14.2578 33.3713ZM36.6364 33.4621C35.9761 34.0968 35.2751 34.7213 34.5549 35.349C33.5162 36.2543 32.4397 37.1675 31.3933 38.1286L32.0588 48.2331H36.6364V33.4621Z" fill="#1A000A"/>
</svg>
