<svg width="61" height="60" viewBox="0 0 61 60" fill="none" xmlns="http://www.w3.org/2000/svg">
<path d="M36.75 45C35 45 33.5208 44.3958 32.3125 43.1875C31.1042 41.9792 30.5 40.5 30.5 38.75C30.5 37 31.1042 35.5208 32.3125 34.3125C33.5208 33.1042 35 32.5 36.75 32.5C38.5 32.5 39.9792 33.1042 41.1875 34.3125C42.3958 35.5208 43 37 43 38.75C43 40.5 42.3958 41.9792 41.1875 43.1875C39.9792 44.3958 38.5 45 36.75 45ZM13 55C11.625 55 10.4475 54.51 9.4675 53.53C8.4875 52.55 7.99834 51.3733 8 50V15C8 13.625 8.49 12.4475 9.47 11.4675C10.45 10.4875 11.6267 9.99833 13 10H15.5V5H20.5V10H40.5V5H45.5V10H48C49.375 10 50.5525 10.49 51.5325 11.47C52.5125 12.45 53.0017 13.6267 53 15V50C53 51.375 52.51 52.5525 51.53 53.5325C50.55 54.5125 49.3733 55.0017 48 55H13ZM13 50H48V25H13V50ZM13 20H48V15H13V20Z" fill="#1A000A"/>
</svg>
