<svg width="45" height="49" viewBox="0 0 45 49" fill="none" xmlns="http://www.w3.org/2000/svg">
<path fill-rule="evenodd" clip-rule="evenodd" d="M17.5 9.9375C11.7083 9.9375 6.77083 14.2708 6.77083 19.8958C6.77083 23.7771 8.5875 27.0437 10.9958 29.75C13.3979 32.4479 16.4958 34.7125 19.2937 36.6083L24.125 39.8792C24.3834 40.0538 24.6881 40.1471 25 40.1471C25.3119 40.1471 25.6166 40.0538 25.875 39.8792L30.7063 36.6083C33.5063 34.7125 36.6021 32.4479 39.0021 29.75C41.4125 27.0437 43.2292 23.7771 43.2292 19.8958C43.2292 14.2708 38.2917 9.9375 32.5 9.9375C29.5125 9.9375 26.8854 11.3375 25 13.15C23.1146 11.3375 20.4854 9.9375 17.5 9.9375ZM18.2292 25.5625C18.2292 25.1481 18.3938 24.7507 18.6868 24.4576C18.9798 24.1646 19.3773 24 19.7917 24H23.4375V20.3542C23.4375 19.9398 23.6021 19.5423 23.8951 19.2493C24.1882 18.9563 24.5856 18.7917 25 18.7917C25.4144 18.7917 25.8118 18.9563 26.1049 19.2493C26.3979 19.5423 26.5625 19.9398 26.5625 20.3542V24H30.2083C30.6227 24 31.0202 24.1646 31.3132 24.4576C31.6062 24.7507 31.7708 25.1481 31.7708 25.5625C31.7708 25.9769 31.6062 26.3743 31.3132 26.6674C31.0202 26.9604 30.6227 27.125 30.2083 27.125H26.5625V30.7708C26.5625 31.1852 26.3979 31.5827 26.1049 31.8757C25.8118 32.1687 25.4144 32.3333 25 32.3333C24.5856 32.3333 24.1882 32.1687 23.8951 31.8757C23.6021 31.5827 23.4375 31.1852 23.4375 30.7708V27.125H19.7917C19.3773 27.125 18.9798 26.9604 18.6868 26.6674C18.3938 26.3743 18.2292 25.9769 18.2292 25.5625Z" fill="#1A000A"/>
</svg>
