<svg width="51" height="50" viewBox="0 0 51 50" fill="none" xmlns="http://www.w3.org/2000/svg">
<g clip-path="url(#clip0_11_14)">
<path d="M21.6914 35.6689C22.7493 36.2061 23.7015 36.8652 24.5479 37.6465C25.3942 38.4277 26.1266 39.3066 26.7451 40.2832C27.3636 41.2598 27.8275 42.3014 28.1367 43.4082C28.446 44.515 28.6087 45.6706 28.625 46.875H25.5C25.5 45.5892 25.2559 44.3766 24.7676 43.2373C24.2793 42.098 23.612 41.1051 22.7656 40.2588C21.9193 39.4124 20.9183 38.737 19.7627 38.2324C18.6071 37.7279 17.3945 37.4837 16.125 37.5C14.8229 37.5 13.6104 37.7441 12.4873 38.2324C11.3643 38.7207 10.3714 39.388 9.50879 40.2344C8.64616 41.0807 7.9707 42.0817 7.48242 43.2373C6.99414 44.3929 6.75 45.6055 6.75 46.875H3.625C3.625 45.6868 3.78776 44.5394 4.11328 43.4326C4.4388 42.3258 4.90267 41.2842 5.50488 40.3076C6.1071 39.3311 6.83138 38.4521 7.67773 37.6709C8.52409 36.8896 9.48438 36.2223 10.5586 35.6689C9.35417 34.7738 8.41829 33.667 7.75098 32.3486C7.08366 31.0303 6.75 29.6224 6.75 28.125C6.75 26.8392 6.99414 25.6266 7.48242 24.4873C7.9707 23.348 8.63802 22.3551 9.48438 21.5088C10.3307 20.6624 11.3236 19.987 12.4629 19.4824C13.6022 18.9779 14.8229 18.7337 16.125 18.75C17.6224 18.75 19.0303 19.0837 20.3486 19.751C21.667 20.4183 22.7738 21.3542 23.6689 22.5586C24.2874 21.3379 25.0768 20.2474 26.0371 19.2871C26.9974 18.3268 28.0879 17.5374 29.3086 16.9189C28.1042 16.0238 27.1683 14.917 26.501 13.5986C25.8337 12.2803 25.5 10.8724 25.5 9.375C25.5 8.08919 25.7441 6.87663 26.2324 5.7373C26.7207 4.59798 27.388 3.60514 28.2344 2.75879C29.0807 1.91243 30.0736 1.23698 31.2129 0.732422C32.3522 0.227865 33.5729 -0.016276 34.875 0C36.1608 0 37.3734 0.244141 38.5127 0.732422C39.652 1.2207 40.6449 1.88802 41.4912 2.73438C42.3376 3.58073 43.013 4.58171 43.5176 5.7373C44.0221 6.8929 44.2663 8.10547 44.25 9.375C44.25 10.8724 43.9163 12.2803 43.249 13.5986C42.5817 14.917 41.6458 16.0238 40.4414 16.9189C41.4993 17.4561 42.4515 18.1152 43.2979 18.8965C44.1442 19.6777 44.8766 20.5566 45.4951 21.5332C46.1136 22.5098 46.5775 23.5514 46.8867 24.6582C47.196 25.765 47.3587 26.9206 47.375 28.125H44.25C44.25 26.8392 44.0059 25.6266 43.5176 24.4873C43.0293 23.348 42.362 22.3551 41.5156 21.5088C40.6693 20.6624 39.6683 19.987 38.5127 19.4824C37.3571 18.9779 36.1445 18.7337 34.875 18.75C33.5729 18.75 32.3604 18.9941 31.2373 19.4824C30.1143 19.9707 29.1214 20.638 28.2588 21.4844C27.3962 22.3307 26.7207 23.3317 26.2324 24.4873C25.7441 25.6429 25.5 26.8555 25.5 28.125C25.5 29.6224 25.1663 31.0303 24.499 32.3486C23.8317 33.667 22.8958 34.7738 21.6914 35.6689ZM28.625 9.375C28.625 10.2376 28.7878 11.0433 29.1133 11.792C29.4388 12.5407 29.8864 13.208 30.4561 13.7939C31.0257 14.3799 31.6849 14.8275 32.4336 15.1367C33.1823 15.446 33.9961 15.6087 34.875 15.625C35.7376 15.625 36.5433 15.4622 37.292 15.1367C38.0407 14.8112 38.708 14.3636 39.2939 13.7939C39.8799 13.2243 40.3275 12.5651 40.6367 11.8164C40.946 11.0677 41.1087 10.2539 41.125 9.375C41.125 8.51237 40.9622 7.70671 40.6367 6.95801C40.3112 6.20931 39.8636 5.54199 39.2939 4.95605C38.7243 4.37012 38.0651 3.92253 37.3164 3.61328C36.5677 3.30404 35.7539 3.14128 34.875 3.125C34.0124 3.125 33.2067 3.28776 32.458 3.61328C31.7093 3.9388 31.042 4.38639 30.4561 4.95605C29.8701 5.52572 29.4225 6.1849 29.1133 6.93359C28.804 7.68229 28.6413 8.49609 28.625 9.375ZM9.875 28.125C9.875 28.9876 10.0378 29.7933 10.3633 30.542C10.6888 31.2907 11.1364 31.958 11.7061 32.5439C12.2757 33.1299 12.9349 33.5775 13.6836 33.8867C14.4323 34.196 15.2461 34.3587 16.125 34.375C16.9876 34.375 17.7933 34.2122 18.542 33.8867C19.2907 33.5612 19.958 33.1136 20.5439 32.5439C21.1299 31.9743 21.5775 31.3151 21.8867 30.5664C22.196 29.8177 22.3587 29.0039 22.375 28.125C22.375 27.2624 22.2122 26.4567 21.8867 25.708C21.5612 24.9593 21.1136 24.292 20.5439 23.7061C19.9743 23.1201 19.3151 22.6725 18.5664 22.3633C17.8177 22.054 17.0039 21.8913 16.125 21.875C15.2624 21.875 14.4567 22.0378 13.708 22.3633C12.9593 22.6888 12.292 23.1364 11.7061 23.7061C11.1201 24.2757 10.6725 24.9349 10.3633 25.6836C10.054 26.4323 9.89128 27.2461 9.875 28.125ZM46.5938 50L39.5625 44.5068L32.5312 50L35.3633 41.2109L28.625 35.9375H37.0479L39.5625 28.125L42.0771 35.9375H50.5L43.7617 41.2109L46.5938 50Z" fill="#1A000A"/>
</g>
<defs>
<clipPath id="clip0_11_14">
<rect width="50" height="50" fill="white" transform="translate(0.5)"/>
</clipPath>
</defs>
</svg>
