<svg width="51" height="50" viewBox="0 0 51 50" fill="none" xmlns="http://www.w3.org/2000/svg">
<path fill-rule="evenodd" clip-rule="evenodd" d="M33.8333 18.75C33.8333 20.9601 32.9553 23.0797 31.3925 24.6425C29.8297 26.2053 27.7101 27.0833 25.5 27.0833C23.2899 27.0833 21.1702 26.2053 19.6074 24.6425C18.0446 23.0797 17.1667 20.9601 17.1667 18.75C17.1667 16.5398 18.0446 14.4202 19.6074 12.8574C21.1702 11.2946 23.2899 10.4166 25.5 10.4166C27.7101 10.4166 29.8297 11.2946 31.3925 12.8574C32.9553 14.4202 33.8333 16.5398 33.8333 18.75ZM29.6667 18.75C29.6667 19.855 29.2277 20.9148 28.4463 21.6962C27.6649 22.4776 26.6051 22.9166 25.5 22.9166C24.3949 22.9166 23.3351 22.4776 22.5537 21.6962C21.7723 20.9148 21.3333 19.855 21.3333 18.75C21.3333 17.6449 21.7723 16.5851 22.5537 15.8037C23.3351 15.0223 24.3949 14.5833 25.5 14.5833C26.6051 14.5833 27.6649 15.0223 28.4463 15.8037C29.2277 16.5851 29.6667 17.6449 29.6667 18.75Z" fill="#1A000A"/>
<path fill-rule="evenodd" clip-rule="evenodd" d="M25.5 2.08331C12.8437 2.08331 2.58331 12.3437 2.58331 25C2.58331 37.6562 12.8437 47.9166 25.5 47.9166C38.1562 47.9166 48.4166 37.6562 48.4166 25C48.4166 12.3437 38.1562 2.08331 25.5 2.08331ZM6.74998 25C6.74998 29.3541 8.2354 33.3625 10.725 36.5458C12.4734 34.2498 14.7289 32.389 17.3155 31.109C19.902 29.8289 22.7494 29.1641 25.6354 29.1666C28.484 29.1639 31.2956 29.8115 33.8561 31.0599C36.4165 32.3084 38.6582 34.1248 40.4104 36.3708C42.2155 34.0033 43.4309 31.24 43.956 28.3095C44.4811 25.3791 44.3009 22.3657 43.4302 19.5187C42.5595 16.6717 41.0234 14.073 38.9489 11.9376C36.8745 9.80212 34.3213 8.19135 31.5008 7.23854C28.6802 6.28573 25.6733 6.01825 22.7289 6.45826C19.7844 6.89826 16.987 8.03309 14.5682 9.76884C12.1495 11.5046 10.1788 13.7914 8.81921 16.44C7.45966 19.0886 6.75036 22.0228 6.74998 25ZM25.5 43.75C21.1957 43.7564 17.0214 42.2757 13.6833 39.5583C15.0269 37.6348 16.8153 36.0644 18.8962 34.9806C20.9772 33.8968 23.2891 33.3316 25.6354 33.3333C27.9524 33.3315 30.2364 33.8824 32.2977 34.9404C34.3591 35.9985 36.1382 37.533 37.4875 39.4166C34.1235 42.2223 29.8804 43.7561 25.5 43.75Z" fill="#1A000A"/>
</svg>
